#Comment line ignore any data following # character 
#Hierarchical Translation and Rotation (.htr) file 
[Header]	
#Header keywords are followed by a single value 
FileType HTR		#Single word string
DataType HTRS		#Translation followed by rotation and scale data
FileVersion 1		#integer
NumSegments 23		#integer
NumFrames 4		#integer
DataFrameRate 30		#integer, data frame rate in this file
EulerRotationOrder ZYX
CalibrationUnits mm
RotationUnits Degrees
GlobalAxisofGravity Y
BoneLengthAxis Y
ScaleFactor 1.00
[SegmentNames&Hierarchy]
#CHILD	PARENT
MASTER GLOBAL
weapon MASTER
arm_lock_bottom_part1 weapon
arm_lock_bottom_part2 weapon
arm_lock_bottom_part3 weapon
arm_lock_bottom_part4 weapon
arm_lock_top_part1 weapon
arm_lock_top_part2 weapon
arm_lock_top_part3 weapon
front_lower_left_part1 weapon
front_lower_right_part1 weapon
front_top_left_part weapon
front_top_right_part1 weapon
scope_part1 weapon
scope_part2 weapon
front_lower_left_part2 front_lower_left_part1
front_lower_left_part3 front_lower_left_part2
front_lower_right_part2 front_lower_right_part1
front_lower_right_part3 front_lower_right_part2
front_top_left_part2 front_top_left_part
front_top_left_part3 front_top_left_part2
front_top_right_part2 front_top_right_part1
front_top_right_part3 front_top_right_part2
[BasePosition]
#SegmentName Tx, Ty, Tz, Rx, Ry, Rz, BoneLength
MASTER 0.000000 0.000000 0.000000 -90.000000 0.000000 0.000000 10.000000 
weapon 0.000000 0.000000 0.000000 0.000000 0.000000 0.000000 10.000000 
arm_lock_bottom_part1 0.000000 0.000000 0.000000 0.000000 0.000000 0.000000 10.000000 
arm_lock_bottom_part2 0.000000 0.000000 0.000000 0.000000 0.000000 0.000000 10.000000 
arm_lock_bottom_part3 0.000000 0.000000 0.000000 0.000000 0.000000 0.000000 10.000000 
arm_lock_bottom_part4 0.000000 0.000000 0.000000 0.000000 0.000000 0.000000 10.000000 
arm_lock_top_part1 0.000000 0.000000 0.000000 0.000000 0.000000 0.000000 10.000000 
arm_lock_top_part2 0.000000 0.000000 0.000000 0.000000 0.000000 0.000000 10.000000 
arm_lock_top_part3 0.000000 0.000000 0.000000 0.000000 0.000000 0.000000 10.000000 
front_lower_left_part1 0.000000 0.000000 0.000000 0.000000 0.000000 0.000000 10.000000 
front_lower_right_part1 0.000000 0.000000 0.000000 0.000000 0.000000 0.000000 10.000000 
front_top_left_part 0.000000 0.000000 0.000000 0.000000 0.000000 0.000000 10.000000 
front_top_right_part1 0.000000 0.000000 0.000000 0.000000 0.000000 0.000000 10.000000 
scope_part1 0.000000 0.000000 0.000000 0.000000 0.000000 0.000000 10.000000 
scope_part2 0.000000 0.000000 0.000000 0.000000 0.000000 0.000000 10.000000 
front_lower_left_part2 0.000000 0.000000 0.000000 0.000000 0.000000 0.000000 10.000000 
front_lower_left_part3 0.000000 0.000000 0.000000 0.000000 0.000000 0.000000 10.000000 
front_lower_right_part2 0.000000 0.000000 0.000000 0.000000 0.000000 0.000000 10.000000 
front_lower_right_part3 0.000000 0.000000 0.000000 0.000000 0.000000 0.000000 10.000000 
front_top_left_part2 0.000000 0.000000 0.000000 0.000000 0.000000 0.000000 10.000000 
front_top_left_part3 0.000000 0.000000 0.000000 0.000000 0.000000 0.000000 10.000000 
front_top_right_part2 0.000000 0.000000 0.000000 0.000000 0.000000 0.000000 10.000000 
front_top_right_part3 0.000000 0.000000 0.000000 0.000000 0.000000 0.000000 10.000000 
#Beginning of Data. Separated by tabs
#Fr	Tx	Ty	Tz	Rx	Ry	Rz	SF
[MASTER]
45 0.000000 -0.000019 0.000002 0.002458 -0.000000 0.000000 0.000019
46 0.000000 -0.000019 0.000002 0.002458 -0.000000 0.000000 0.000019
47 0.000000 -0.000019 0.000002 0.002458 -0.000000 0.000000 0.000019
48 0.000000 -0.000019 0.000002 0.002458 -0.000000 0.000000 0.000019
[weapon]
45 10.182495 -168.978104 -13.084106 -0.002473 -0.000000 -0.000020 169.789505
46 10.182476 -168.977966 -13.084106 -0.002473 -0.000000 -0.000020 169.789368
47 10.182476 -168.977966 -13.084259 -0.002473 -0.000000 -0.000020 169.789368
48 10.182495 -168.978043 -13.084030 -0.002473 -0.000000 -0.000020 169.789444
[arm_lock_bottom_part1]
45 -48.820034 98.566185 -83.498901 179.998215 -0.001518 9.389182 138.096909
46 -48.820034 98.566185 -83.498901 179.998215 -0.001518 9.389182 138.096909
47 -48.820034 98.566185 -83.498901 179.998215 -0.001518 9.389182 138.096909
48 -48.820034 98.566185 -83.498901 179.998215 -0.001518 9.389182 138.096909
[arm_lock_bottom_part2]
45 -49.022778 58.781982 -78.526520 179.998245 -0.001562 6.578086 109.658417
46 -49.022778 58.781982 -78.526520 179.998245 -0.001562 6.578084 109.658417
47 -49.022778 58.781982 -78.526520 179.998245 -0.001562 6.578084 109.658417
48 -49.022778 58.781982 -78.526520 179.998245 -0.001562 6.578084 109.658417
[arm_lock_bottom_part3]
45 -51.266434 -16.798199 -66.920387 179.998291 -0.001596 4.325218 85.957924
46 -51.266434 -16.798199 -66.920387 179.998291 -0.001596 4.325218 85.957924
47 -51.266434 -16.798199 -66.920387 179.998291 -0.001596 4.325218 85.957924
48 -51.266434 -16.798199 -66.920387 179.998291 -0.001596 4.325218 85.957924
[arm_lock_bottom_part4]
45 -40.078083 -93.503029 -59.330029 -179.999222 -7.951346 1.320369 117.767235
46 -40.078083 -93.503029 -59.330029 -179.999222 -7.951346 1.320369 117.767235
47 -40.078083 -93.503029 -59.330029 -179.999222 -7.951346 1.320369 117.767235
48 -40.078083 -93.503029 -59.330029 -179.999222 -7.951346 1.320369 117.767235
[arm_lock_top_part1]
45 -47.532562 61.554470 78.379471 0.001509 0.001798 -10.001317 110.415756
46 -47.532562 61.554470 78.379471 0.001509 0.001798 -10.001317 110.415756
47 -47.532562 61.554470 78.379471 0.001509 0.001798 -10.001317 110.415756
48 -47.532562 61.554470 78.379471 0.001509 0.001798 -10.001317 110.415756
[arm_lock_top_part2]
45 -45.622692 13.709888 63.393517 0.001544 0.001768 -7.724405 79.297722
46 -45.622692 13.709888 63.393517 0.001544 0.001768 -7.724405 79.297722
47 -45.622692 13.709888 63.393517 0.001544 0.001768 -7.724405 79.297722
48 -45.622692 13.709888 63.393517 0.001544 0.001768 -7.724405 79.297722
[arm_lock_top_part3]
45 -43.788521 -73.747162 72.061607 0.001593 0.001724 -4.534721 112.022110
46 -43.788521 -73.747162 72.061607 0.001593 0.001724 -4.534721 112.022110
47 -43.788521 -73.747162 72.061607 0.001593 0.001724 -4.534721 112.022110
48 -43.788521 -73.747162 72.061607 0.001593 0.001724 -4.534721 112.022110
[front_lower_left_part1]
45 -46.798580 475.070923 -43.538815 0.000000 0.000003 -0.000000 479.351746
46 -46.798580 475.070923 -43.538815 0.000000 0.000003 -0.000000 479.351746
47 -46.798580 475.070923 -43.538815 0.000000 0.000003 -0.000000 479.351746
48 -46.798580 475.070923 -43.538815 0.000000 0.000003 -0.000000 479.351746
[front_lower_right_part1]
45 26.433397 475.070923 -43.538826 0.000000 -0.000000 -0.000000 477.793640
46 26.433397 475.070923 -43.538826 0.000000 -0.000000 -0.000000 477.793640
47 26.433397 475.070923 -43.538826 0.000000 -0.000000 -0.000000 477.793640
48 26.433397 475.070923 -43.538826 0.000000 -0.000000 -0.000000 477.793640
[front_top_left_part]
45 -47.897255 494.788696 7.031011 -0.000000 0.000003 -0.000001 497.151367
46 -47.897255 494.788696 7.031011 -0.000000 0.000003 -0.000001 497.151367
47 -47.897255 494.788696 7.031011 -0.000000 0.000003 -0.000001 497.151367
48 -47.897255 494.788696 7.031011 -0.000000 0.000003 -0.000001 497.151367
[front_top_right_part1]
45 27.532097 494.788727 7.031008 0.000000 -0.000000 -0.000000 495.604004
46 27.532097 494.788727 7.031008 0.000000 -0.000000 -0.000000 495.604004
47 27.532097 494.788727 7.031008 0.000000 -0.000000 -0.000000 495.604004
48 27.532097 494.788727 7.031008 0.000000 -0.000000 -0.000000 495.604004
[scope_part1]
45 -10.754304 87.338959 156.453140 -162.407715 73.562050 -163.086136 179.503021
46 -10.754304 87.338959 156.453140 -164.574844 71.252289 -165.358170 179.503021
47 -10.754304 87.338959 156.453140 -166.156738 69.072922 -167.038696 179.503021
48 -10.754304 87.338959 156.453140 -167.342514 67.049118 -168.316711 179.503021
[scope_part2]
45 -10.754300 82.597374 156.860001 -173.124603 44.443462 -175.172897 177.603607
46 -10.754300 82.597374 156.860001 -173.435760 41.561413 -175.633133 177.603607
47 -10.754300 82.597374 156.860001 -173.693802 38.862091 -176.031662 177.603607
48 -10.754300 82.597374 156.860001 -173.903152 36.375908 -176.375839 177.603607
[front_lower_left_part2]
45 -55.193569 141.618454 32.268322 0.001886 0.001397 16.927948 155.381348
46 -55.193569 141.618454 32.268322 0.001886 0.001397 16.927948 155.381348
47 -55.193569 141.618454 32.268322 0.001874 0.001413 15.988502 155.381348
48 -55.193569 141.618454 32.268322 0.001844 0.001452 13.569739 155.381348
[front_lower_left_part3]
45 -10.943815 108.509422 -11.124855 33.419945 -15.865548 -13.715983 109.625839
46 -10.943815 108.509422 -11.124855 33.434280 -15.826730 -13.774165 109.625839
47 -10.943815 108.509422 -11.124855 33.433483 -15.835763 -13.761205 109.625839
48 -10.943815 108.509422 -11.124855 33.419945 -15.865544 -13.715985 109.625839
[front_lower_right_part2]
45 55.193596 141.618317 32.268330 0.001480 0.001822 -11.824665 155.381226
46 55.193596 141.618317 32.268330 0.001480 0.001822 -11.824665 155.381226
47 55.193596 141.618317 32.268330 0.001490 0.001813 -11.173517 155.381226
48 55.193596 141.618317 32.268330 0.001517 0.001791 -9.480168 155.381226
[front_lower_right_part3]
45 10.943837 108.509453 -11.124846 32.583675 17.667221 10.815405 109.625862
46 10.943837 108.509453 -11.124846 32.730270 17.369234 11.308797 109.625862
47 10.943837 108.509453 -11.124846 32.871460 17.077465 11.776500 109.625862
48 10.943837 108.509453 -11.124846 32.998905 16.802588 12.220377 109.625862
[front_top_left_part2]
45 -68.606682 132.667847 55.914623 11.079756 0.000004 13.726176 159.480652
46 -68.606682 132.667847 55.914619 11.079756 0.000004 13.726176 159.480652
47 -68.606682 132.667847 55.914616 11.079756 0.000004 13.726176 159.480652
48 -68.606682 132.667847 55.914612 11.079756 0.000004 13.726176 159.480652
[front_top_left_part3]
45 -28.216480 149.656799 49.959614 -25.892494 -3.573856 -65.856392 160.278793
46 -28.216480 149.656799 49.959614 -25.896824 -3.516466 -65.735344 160.278793
47 -28.216480 149.656799 49.959614 -25.905636 -3.479219 -65.659271 160.278793
48 -28.216480 149.656799 49.959614 -25.904867 -3.465846 -65.631653 160.278793
[front_top_right_part2]
45 62.566177 124.344566 58.663258 14.077118 -1.062711 -17.004618 151.054535
46 62.566185 124.344559 58.663258 14.077118 -1.062711 -17.004618 151.054535
47 62.566185 124.344559 58.663254 14.077118 -1.062711 -17.004618 151.054535
48 62.566185 124.344559 58.663254 14.077118 -1.062711 -17.004618 151.054535
[front_top_right_part3]
45 28.216452 149.656952 49.959507 -24.723932 8.709850 76.737122 160.278885
46 28.216452 149.656952 49.959507 -24.723932 8.709850 76.737122 160.278885
47 28.216452 149.656952 49.959507 -24.723932 8.709850 76.737122 160.278885
48 28.216452 149.656952 49.959507 -24.723932 8.709850 76.737122 160.278885
